<?xml version="1.0" encoding="UTF-8" standalone="no"?>
<!DOCTYPE svg PUBLIC "-//W3C//DTD SVG 1.1//EN" "http://www.w3.org/Graphics/SVG/1.1/DTD/svg11.dtd">
<!-- Generated by graphviz version 2.40.1 (20161225.0304)
 -->
<!-- Title: TD Pages: 1 -->
<svg xmlns="http://www.w3.org/2000/svg" xmlns:xlink="http://www.w3.org/1999/xlink" width="1463pt" height="793pt" viewBox="0.00 0.00 1462.50 792.90">
  <g id="graph0" class="graph" transform="scale(1 1) rotate(0) translate(4 788.9)">
    <title>TD</title>
    <g id="a_graph0">
      <a xlink:title="Click the boxes for further information">
        <polygon fill="#ffffff" stroke="transparent" points="-4,4 -4,-788.9 1458.5,-788.9 1458.5,4 -4,4"/>
      </a>
    </g>
    <!-- 1&#45;&gt;2 -->
    <g id="edge1" class="edge">
      <title>1-&gt;2</title>
      <path fill="none" stroke="#ffffff" d="M194.5,-755.4938C194.5,-738.7242 194.5,-711.4737 194.5,-693.3941"/>
    </g>
    <!-- 2&#45;&gt;A -->
    <g id="edge2" class="edge">
      <title>2-&gt;A</title>
      <path fill="none" stroke="#000000" d="M194.5,-656.5651C194.5,-554.2499 194.5,-59.9521 194.5,-36.8381"/>
    </g>
    <!-- 3&#45;&gt;4 -->
    <!-- 3&#45;&gt;5 -->
    <!-- 4&#45;&gt;5 -->
    <g id="edge6" class="edge">
      <title>4-&gt;5</title>
      <path fill="none" stroke="#000000" d="M590.821,-675C599.202,-675 607.6641,-675 616.0914,-675"/>
      <polygon fill="#000000" stroke="#000000" points="616.346,-678.5001 626.3459,-675 616.3459,-671.5001 616.346,-678.5001"/>
    </g>
    <!-- 4&#45;&gt;6 -->
    <g id="edge7" class="edge">
      <title>4-&gt;6</title>
      <path fill="none" stroke="#000000" d="M464.5,-629.6714C464.5,-609.4043 464.5,-586.1372 464.5,-568.3831"/>
      <polygon fill="#000000" stroke="#000000" points="468.0001,-568.3747 464.5,-558.3747 461.0001,-568.3747 468.0001,-568.3747"/>
    </g>
    <!-- 5&#45;&gt;7 -->
    <!-- 6&#45;&gt;7 -->
    <g id="edge8" class="edge">
      <title>6-&gt;7</title>
      <path fill="none" stroke="#000000" d="M590.821,-540C599.202,-540 607.6641,-540 616.0914,-540"/>
      <polygon fill="#000000" stroke="#000000" points="616.346,-543.5001 626.3459,-540 616.3459,-536.5001 616.346,-543.5001"/>
    </g>
    <!-- 6&#45;&gt;8 -->
    <g id="edge9" class="edge">
      <title>6-&gt;8</title>
      <path fill="none" stroke="#000000" d="M464.5,-521.4582C464.5,-513.9583 464.5,-505.1245 464.5,-496.8217"/>
      <polygon fill="#000000" stroke="#000000" points="468.0001,-496.7292 464.5,-486.7292 461.0001,-496.7292 468.0001,-496.7292"/>
    </g>
    <!-- 7&#45;&gt;9 -->
    <!-- 8&#45;&gt;9 -->
    <g id="edge10" class="edge">
      <title>8-&gt;9</title>
      <path fill="none" stroke="#000000" d="M590.821,-468C599.202,-468 607.6641,-468 616.0914,-468"/>
      <polygon fill="#000000" stroke="#000000" points="616.346,-471.5001 626.3459,-468 616.3459,-464.5001 616.346,-471.5001"/>
    </g>
    <!-- 8&#45;&gt;10 -->
    <g id="edge11" class="edge">
      <title>8-&gt;10</title>
      <path fill="none" stroke="#000000" d="M464.5,-449.5119C464.5,-426.9171 464.5,-388.4257 464.5,-361.9052"/>
      <polygon fill="#000000" stroke="#000000" points="468.0001,-361.698 464.5,-351.698 461.0001,-361.6981 468.0001,-361.698"/>
    </g>
    <!-- 9&#45;&gt;11 -->
    <!-- 10&#45;&gt;12 -->
    <g id="edge13" class="edge">
      <title>10-&gt;12</title>
      <path fill="none" stroke="#000000" d="M464.5,-314.5338C464.5,-285.9944 464.5,-230.2946 464.5,-190.3103"/>
      <polygon fill="#000000" stroke="#000000" points="468.0001,-190.2541 464.5,-180.2541 461.0001,-190.2542 468.0001,-190.2541"/>
    </g>
    <!-- 10&#45;&gt;C -->
    <g id="edge12" class="edge">
      <title>10-&gt;C</title>
      <path fill="none" stroke="#000000" d="M590.821,-333C599.202,-333 607.6641,-333 616.0914,-333"/>
      <polygon fill="#000000" stroke="#000000" points="616.346,-336.5001 626.3459,-333 616.3459,-329.5001 616.346,-336.5001"/>
    </g>
    <!-- 12&#45;&gt;19 -->
    <g id="edge25" class="edge">
      <title>12-&gt;19</title>
      <path fill="none" stroke="#000000" d="M464.5,-107.7371C464.5,-99.6339 464.5,-90.9311 464.5,-82.4791"/>
      <polygon fill="#000000" stroke="#000000" points="468.0001,-82.351 464.5,-72.351 461.0001,-82.351 468.0001,-82.351"/>
    </g>
    <!-- 13&#45;&gt;14 -->
    <g id="edge18" class="edge">
      <title>13-&gt;14</title>
      <path fill="none" stroke="#ffffff" d="M1162.3155,-755.7028C1136.9909,-738.9253 1095.5389,-711.4633 1068.1361,-693.309"/>
    </g>
    <!-- 14&#45;&gt;15 -->
    <g id="edge19" class="edge">
      <title>14-&gt;15</title>
      <path fill="none" stroke="#000000" d="M1040.5,-656.6301C1040.5,-620.4172 1040.5,-539.5932 1040.5,-496.4385"/>
      <polygon fill="#000000" stroke="#000000" points="1044.0001,-496.3287 1040.5,-486.3287 1037.0001,-496.3287 1044.0001,-496.3287"/>
    </g>
    <!-- 15&#45;&gt;16 -->
    <g id="edge20" class="edge">
      <title>15-&gt;16</title>
      <path fill="none" stroke="#000000" d="M1166.821,-468C1175.202,-468 1183.6641,-468 1192.0915,-468"/>
      <polygon fill="#000000" stroke="#000000" points="1192.346,-471.5001 1202.3459,-468 1192.3459,-464.5001 1192.346,-471.5001"/>
    </g>
    <!-- 15&#45;&gt;17 -->
    <g id="edge21" class="edge">
      <title>15-&gt;17</title>
      <path fill="none" stroke="#000000" d="M1040.5,-449.5119C1040.5,-426.9171 1040.5,-388.4257 1040.5,-361.9052"/>
      <polygon fill="#000000" stroke="#000000" points="1044.0001,-361.698 1040.5,-351.698 1037.0001,-361.6981 1044.0001,-361.698"/>
    </g>
    <!-- 16&#45;&gt;18 -->
    <!-- 17&#45;&gt;18 -->
    <g id="edge22" class="edge">
      <title>17-&gt;18</title>
      <path fill="none" stroke="#000000" d="M1166.821,-333C1175.202,-333 1183.6641,-333 1192.0915,-333"/>
      <polygon fill="#000000" stroke="#000000" points="1192.346,-336.5001 1202.3459,-333 1192.3459,-329.5001 1192.346,-336.5001"/>
    </g>
    <!-- 17&#45;&gt;B -->
    <g id="edge23" class="edge">
      <title>17-&gt;B</title>
      <path fill="none" stroke="#000000" d="M1040.5,-314.5338C1040.5,-269.2057 1040.5,-155.3633 1040.5,-144.7902"/>
    </g>
    <!-- A&#45;&gt;19 -->
    <g id="edge3" class="edge">
      <title>A-&gt;19</title>
      <path fill="none" stroke="#000000" d="M195.2745,-36C202.8789,-36 265.2543,-36 328.0484,-36"/>
      <polygon fill="#000000" stroke="#000000" points="328.1218,-39.5001 338.1218,-36 328.1217,-32.5001 328.1218,-39.5001"/>
    </g>
    <!-- B&#45;&gt;12 -->
    <g id="edge24" class="edge">
      <title>B-&gt;12</title>
      <path fill="none" stroke="#000000" d="M1039.8494,-144C1025.2012,-144 766.5171,-144 601.0507,-144"/>
      <polygon fill="#000000" stroke="#000000" points="600.7832,-140.5001 590.7832,-144 600.7832,-147.5001 600.7832,-140.5001"/>
    </g>
    <!-- identification -->
    <g id="node1" class="node">
      <title>identification</title>
      <g id="a_node1">
        <a xlink:title="Blue identification box">
          <path fill="#bcd2ee" stroke="#bcd2ee" d="M19.3333,-720C19.3333,-720 9.6667,-720 9.6667,-720 4.8333,-720 0,-715.1667 0,-710.3333 0,-710.3333 0,-639.6667 0,-639.6667 0,-634.8333 4.8333,-630 9.6667,-630 9.6667,-630 19.3333,-630 19.3333,-630 24.1667,-630 29,-634.8333 29,-639.6667 29,-639.6667 29,-710.3333 29,-710.3333 29,-715.1667 24.1667,-720 19.3333,-720"/>
          <text text-anchor="middle" x="671.4" y="16.5" font-family="Helvetica,sans-Serif" font-size="12.00" fill="#000000" transform="rotate(-90)">Identification</text>
        </a>
      </g>
    </g>
    <!-- screening -->
    <g id="node2" class="node">
      <title>screening</title>
      <g id="a_node2">
        <a xlink:title="Blue screening box">
          <path fill="#bcd2ee" stroke="#bcd2ee" d="M19.3333,-618C19.3333,-618 9.6667,-618 9.6667,-618 4.8333,-618 0,-613.1667 0,-608.3333 0,-608.3333 0,-285.6667 0,-285.6667 0,-280.8333 4.8333,-276 9.6667,-276 9.6667,-276 19.3333,-276 19.3333,-276 24.1667,-276 29,-280.8333 29,-285.6667 29,-285.6667 29,-608.3333 29,-608.3333 29,-613.1667 24.1667,-618 19.3333,-618"/>
          <text text-anchor="middle" x="443.4" y="16.5" font-family="Helvetica,sans-Serif" font-size="12.00" fill="#000000" transform="rotate(-90)">Screening</text>
        </a>
      </g>
    </g>
    <!-- included -->
    <g id="node3" class="node">
      <title>included</title>
      <g id="a_node3">
        <a xlink:title="Blue included box">
          <path fill="#bcd2ee" stroke="#bcd2ee" d="M19.3333,-180C19.3333,-180 9.6667,-180 9.6667,-180 4.8333,-180 0,-175.1667 0,-170.3333 0,-170.3333 0,-9.6667 0,-9.6667 0,-4.8333 4.8333,0 9.6667,0 9.6667,0 19.3333,0 19.3333,0 24.1667,0 29,-4.8333 29,-9.6667 29,-9.6667 29,-170.3333 29,-170.3333 29,-175.1667 24.1667,-180 19.3333,-180"/>
          <text text-anchor="middle" x="86.4" y="16.5" font-family="Helvetica,sans-Serif" font-size="12.00" fill="#000000" transform="rotate(-90)">Included</text>
        </a>
      </g>
    </g>
    <!-- 1 -->
    <g id="node4" class="node">
      <title>1</title>
      <g id="a_node4">
        <a xlink:title="Grey title box; Previous studies">
          <path fill="#dcdcdc" stroke="#dcdcdc" d="M310.8333,-784.9C310.8333,-784.9 78.1666,-784.9 78.1666,-784.9 73.3333,-784.9 68.5,-780.0667 68.5,-775.2334 68.5,-775.2334 68.5,-765.5667 68.5,-765.5667 68.5,-760.7334 73.3333,-755.9 78.1666,-755.9 78.1666,-755.9 310.8333,-755.9 310.8333,-755.9 315.6666,-755.9 320.5,-760.7334 320.5,-765.5667 320.5,-765.5667 320.5,-775.2334 320.5,-775.2334 320.5,-780.0667 315.6666,-784.9 310.8333,-784.9"/>
          <text text-anchor="middle" x="194.5" y="-766.8" font-family="Helvetica,sans-Serif" font-size="12.00" fill="#000000">Previous studies</text>
        </a>
      </g>
    </g>
    <!-- 2 -->
    <g id="node5" class="node">
      <title>2</title>
      <g id="a_node5">
        <a xlink:title="Studies included in previous version of review">
          <polygon fill="#dcdcdc" stroke="#dcdcdc" points="320.5,-693.3005 68.5,-693.3005 68.5,-656.6995 320.5,-656.6995 320.5,-693.3005"/>
          <text text-anchor="middle" x="194.5" y="-678.6" font-family="Helvetica,sans-Serif" font-size="12.00" fill="#000000">Studies included in the estimation</text>
          <text text-anchor="middle" x="194.5" y="-664.2" font-family="Helvetica,sans-Serif" font-size="12.00" fill="#000000">process (n = 38)</text>
        </a>
      </g>
    </g>
    <!-- 3 -->
    <g id="node6" class="node">
      <title>3</title>
      <g id="a_node6">
        <a xlink:title="Yellow title box; Identification of new studies via databases and registers">
          <path fill="#ffc125" stroke="#ffc125" d="M868.8333,-784.9C868.8333,-784.9 348.1666,-784.9 348.1666,-784.9 343.3333,-784.9 338.5,-780.0667 338.5,-775.2334 338.5,-775.2334 338.5,-765.5667 338.5,-765.5667 338.5,-760.7334 343.3333,-755.9 348.1666,-755.9 348.1666,-755.9 868.8333,-755.9 868.8333,-755.9 873.6666,-755.9 878.5,-760.7334 878.5,-765.5667 878.5,-765.5667 878.5,-775.2334 878.5,-775.2334 878.5,-780.0667 873.6666,-784.9 868.8333,-784.9"/>
          <text text-anchor="middle" x="608.5" y="-766.8" font-family="Helvetica,sans-Serif" font-size="12.00" fill="#000000">Identification of studies via databases</text>
        </a>
      </g>
    </g>
    <!-- 4 -->
    <g id="node7" class="node">
      <title>4</title>
      <g id="a_node7">
        <a xlink:title="Records identified from (n=19579): Databases">
          <polygon fill="none" stroke="#000000" points="590.5,-720 338.5,-720 338.5,-630 590.5,-630 590.5,-720"/>
          <text text-anchor="middle" x="464.5" y="-700.2" font-family="Helvetica,sans-Serif" font-size="12.00" fill="#000000">Records identified from:</text>
          <text text-anchor="middle" x="464.5" y="-685.8" font-family="Helvetica,sans-Serif" font-size="12.00" fill="#000000">Embase (n = 1,859)</text>
          <text text-anchor="middle" x="464.5" y="-671.4" font-family="Helvetica,sans-Serif" font-size="12.00" fill="#000000">Global Health (n = 3,970)</text>
          <text text-anchor="middle" x="464.5" y="-657" font-family="Helvetica,sans-Serif" font-size="12.00" fill="#000000">Medline (n = 1,138)</text>
          <text text-anchor="middle" x="464.5" y="-642.6" font-family="Helvetica,sans-Serif" font-size="12.00" fill="#000000">Web of Science (n = 2,612)</text>
        </a>
      </g>
    </g>
    <!-- 5 -->
    <g id="node8" class="node">
      <title>5</title>
      <g id="a_node8">
        <a xlink:title="Duplicate records">
          <polygon fill="none" stroke="#000000" points="878.5,-693.3005 626.5,-693.3005 626.5,-656.6995 878.5,-656.6995 878.5,-693.3005"/>
          <text text-anchor="middle" x="752.5" y="-678.6" font-family="Helvetica,sans-Serif" font-size="12.00" fill="#000000">Records removed before screening:</text>
          <text text-anchor="middle" x="752.5" y="-664.2" font-family="Helvetica,sans-Serif" font-size="12.00" fill="#000000">Duplicate records (n = 2,678)</text>
        </a>
      </g>
    </g>
    <!-- 6 -->
    <g id="node9" class="node">
      <title>6</title>
      <g id="a_node9">
        <a xlink:title="Records screened (databases and registers)">
          <polygon fill="none" stroke="#000000" points="590.5,-558.3005 338.5,-558.3005 338.5,-521.6995 590.5,-521.6995 590.5,-558.3005"/>
          <text text-anchor="middle" x="464.5" y="-543.6" font-family="Helvetica,sans-Serif" font-size="12.00" fill="#000000">Records screened</text>
          <text text-anchor="middle" x="464.5" y="-529.2" font-family="Helvetica,sans-Serif" font-size="12.00" fill="#000000">(n = 6,901)</text>
        </a>
      </g>
    </g>
    <!-- 7 -->
    <g id="node10" class="node">
      <title>7</title>
      <g id="a_node10">
        <a xlink:title="Records excluded (databases and registers)">
          <polygon fill="none" stroke="#000000" points="878.5,-558.3005 626.5,-558.3005 626.5,-521.6995 878.5,-521.6995 878.5,-558.3005"/>
          <text text-anchor="middle" x="752.5" y="-543.6" font-family="Helvetica,sans-Serif" font-size="12.00" fill="#000000">Records excluded</text>
          <text text-anchor="middle" x="752.5" y="-529.2" font-family="Helvetica,sans-Serif" font-size="12.00" fill="#000000">(n = 6,113)</text>
        </a>
      </g>
    </g>
    <!-- 8 -->
    <g id="node11" class="node">
      <title>8</title>
      <g id="a_node11">
        <a xlink:title="Reports sought for retrieval (databases and registers)">
          <polygon fill="none" stroke="#000000" points="590.5,-486.3005 338.5,-486.3005 338.5,-449.6995 590.5,-449.6995 590.5,-486.3005"/>
          <text text-anchor="middle" x="464.5" y="-471.6" font-family="Helvetica,sans-Serif" font-size="12.00" fill="#000000">Reports sought for retrieval</text>
          <text text-anchor="middle" x="464.5" y="-457.2" font-family="Helvetica,sans-Serif" font-size="12.00" fill="#000000">(n = 788)</text>
        </a>
      </g>
    </g>
    <!-- 9 -->
    <g id="node12" class="node">
      <title>9</title>
      <g id="a_node12">
        <a xlink:title="Reports not retrieved (databases and registers)">
          <polygon fill="none" stroke="#000000" points="878.5,-486.3005 626.5,-486.3005 626.5,-449.6995 878.5,-449.6995 878.5,-486.3005"/>
          <text text-anchor="middle" x="752.5" y="-471.6" font-family="Helvetica,sans-Serif" font-size="12.00" fill="#000000">Reports not retrieved</text>
          <text text-anchor="middle" x="752.5" y="-457.2" font-family="Helvetica,sans-Serif" font-size="12.00" fill="#000000">(n = 7)</text>
        </a>
      </g>
    </g>
    <!-- 10 -->
    <g id="node13" class="node">
      <title>10</title>
      <g id="a_node13">
        <a xlink:title="Reports assessed for eligibility (databases and registers)">
          <polygon fill="none" stroke="#000000" points="590.5,-351.3005 338.5,-351.3005 338.5,-314.6995 590.5,-314.6995 590.5,-351.3005"/>
          <text text-anchor="middle" x="464.5" y="-336.6" font-family="Helvetica,sans-Serif" font-size="12.00" fill="#000000">Reports assessed for eligibility</text>
          <text text-anchor="middle" x="464.5" y="-322.2" font-family="Helvetica,sans-Serif" font-size="12.00" fill="#000000">(n = 781)</text>
        </a>
      </g>
    </g>
    <!-- 11 -->
    <g id="node14" class="node">
      <title>11</title>
      <g id="a_node14">
        <a xlink:title="Reports excluded (databases and registers)">
          <polygon fill="#ffffff" stroke="#000000" points="878.5,-401.6006 626.5,-401.6006 626.5,-264.3994 878.5,-264.3994 878.5,-401.6006"/>
          <text text-anchor="middle" x="752.5" y="-387" font-family="Helvetica,sans-Serif" font-size="12.00" fill="#000000">Reports excluded:</text>
          <text text-anchor="middle" x="752.5" y="-372.6" font-family="Helvetica,sans-Serif" font-size="12.00" fill="#000000">Duplicate data (n = 3)</text>
          <text text-anchor="middle" x="752.5" y="-358.2" font-family="Helvetica,sans-Serif" font-size="12.00" fill="#000000">Ineligible age groups (n = 9)</text>
          <text text-anchor="middle" x="752.5" y="-343.8" font-family="Helvetica,sans-Serif" font-size="12.00" fill="#000000">No lab confirmation of RSV (n = 3)</text>
          <text text-anchor="middle" x="752.5" y="-329.4" font-family="Helvetica,sans-Serif" font-size="12.00" fill="#000000">No primary disease burden data (n = 16)</text>
          <text text-anchor="middle" x="752.5" y="-315" font-family="Helvetica,sans-Serif" font-size="12.00" fill="#000000">No separate data before 2020 (n = 14)</text>
          <text text-anchor="middle" x="752.5" y="-300.6" font-family="Helvetica,sans-Serif" font-size="12.00" fill="#000000">Non-LMIC setting (n = 29)</text>
          <text text-anchor="middle" x="752.5" y="-286.2" font-family="Helvetica,sans-Serif" font-size="12.00" fill="#000000">Not reporting rate outcomes (n = 688)</text>
          <text text-anchor="middle" x="752.5" y="-271.8" font-family="Helvetica,sans-Serif" font-size="12.00" fill="#000000">Study period &lt;12 months (n = 2)</text>
        </a>
      </g>
    </g>
    <!-- 12 -->
    <g id="node15" class="node">
      <title>12</title>
      <g id="a_node15">
        <a xlink:title="New studies included in review">
          <polygon fill="none" stroke="#000000" points="590.5,-180 338.5,-180 338.5,-108 590.5,-108 590.5,-180"/>
          <text text-anchor="middle" x="464.5" y="-162" font-family="Helvetica,sans-Serif" font-size="12.00" fill="#000000">Studies included in review</text>
          <text text-anchor="middle" x="464.5" y="-147.6" font-family="Helvetica,sans-Serif" font-size="12.00" fill="#000000">(n = 17)</text>
          <text text-anchor="middle" x="464.5" y="-133.2" font-family="Helvetica,sans-Serif" font-size="12.00" fill="#000000">Studies identified via RSV GEN</text>
          <text text-anchor="middle" x="464.5" y="-118.8" font-family="Helvetica,sans-Serif" font-size="12.00" fill="#000000">(n = 3)</text>
        </a>
      </g>
    </g>
    <!-- 13 -->
    <g id="node16" class="node">
      <title>13</title>
      <g id="a_node16">
        <a xlink:title="Grey title box; Identification of new studies via other methods">
          <path fill="#dcdcdc" stroke="#dcdcdc" d="M1444.8333,-784.9C1444.8333,-784.9 924.1666,-784.9 924.1666,-784.9 919.3333,-784.9 914.5,-780.0667 914.5,-775.2334 914.5,-775.2334 914.5,-765.5667 914.5,-765.5667 914.5,-760.7334 919.3333,-755.9 924.1666,-755.9 924.1666,-755.9 1444.8333,-755.9 1444.8333,-755.9 1449.6666,-755.9 1454.5,-760.7334 1454.5,-765.5667 1454.5,-765.5667 1454.5,-775.2334 1454.5,-775.2334 1454.5,-780.0667 1449.6666,-784.9 1444.8333,-784.9"/>
          <text text-anchor="middle" x="1184.5" y="-766.8" font-family="Helvetica,sans-Serif" font-size="12.00" fill="#000000">Identification of studies via other methods</text>
        </a>
      </g>
    </g>
    <!-- 14 -->
    <g id="node17" class="node">
      <title>14</title>
      <g id="a_node17">
        <a xlink:title="NULL">
          <polygon fill="#dcdcdc" stroke="#dcdcdc" points="1166.5,-693.3005 914.5,-693.3005 914.5,-656.6995 1166.5,-656.6995 1166.5,-693.3005"/>
          <text text-anchor="middle" x="1040.5" y="-678.6" font-family="Helvetica,sans-Serif" font-size="12.00" fill="#000000">Records identified from:</text>
          <text text-anchor="middle" x="1040.5" y="-664.2" font-family="Helvetica,sans-Serif" font-size="12.00" fill="#000000">RSV GEN* (n = 19)</text>
        </a>
      </g>
    </g>
    <!-- 15 -->
    <g id="node18" class="node">
      <title>15</title>
      <g id="a_node18">
        <a xlink:title="Reports sought for retrieval (other)">
          <polygon fill="#dcdcdc" stroke="#dcdcdc" points="1166.5,-486.3005 914.5,-486.3005 914.5,-449.6995 1166.5,-449.6995 1166.5,-486.3005"/>
          <text text-anchor="middle" x="1040.5" y="-471.6" font-family="Helvetica,sans-Serif" font-size="12.00" fill="#000000">Reports sought for retrieval</text>
          <text text-anchor="middle" x="1040.5" y="-457.2" font-family="Helvetica,sans-Serif" font-size="12.00" fill="#000000">(n = 19)</text>
        </a>
      </g>
    </g>
    <!-- 16 -->
    <g id="node19" class="node">
      <title>16</title>
      <g id="a_node19">
        <a xlink:title="Reports not retrieved (other)">
          <polygon fill="#dcdcdc" stroke="#dcdcdc" points="1454.5,-486.3005 1202.5,-486.3005 1202.5,-449.6995 1454.5,-449.6995 1454.5,-486.3005"/>
          <text text-anchor="middle" x="1328.5" y="-471.6" font-family="Helvetica,sans-Serif" font-size="12.00" fill="#000000">Reports not retrieved</text>
          <text text-anchor="middle" x="1328.5" y="-457.2" font-family="Helvetica,sans-Serif" font-size="12.00" fill="#000000">(n = 0)</text>
        </a>
      </g>
    </g>
    <!-- 17 -->
    <g id="node20" class="node">
      <title>17</title>
      <g id="a_node20">
        <a xlink:title="Reports assessed for eligibility (other)">
          <polygon fill="#dcdcdc" stroke="#dcdcdc" points="1166.5,-351.3005 914.5,-351.3005 914.5,-314.6995 1166.5,-314.6995 1166.5,-351.3005"/>
          <text text-anchor="middle" x="1040.5" y="-336.6" font-family="Helvetica,sans-Serif" font-size="12.00" fill="#000000">Reports assessed for eligibility</text>
          <text text-anchor="middle" x="1040.5" y="-322.2" font-family="Helvetica,sans-Serif" font-size="12.00" fill="#000000">(n = 19)</text>
        </a>
      </g>
    </g>
    <!-- 18 -->
    <g id="node21" class="node">
      <title>18</title>
      <g id="a_node21">
        <a xlink:title="Reports excluded (other)">
          <polygon fill="#dcdcdc" stroke="#dcdcdc" points="1454.5,-351.3005 1202.5,-351.3005 1202.5,-314.6995 1454.5,-314.6995 1454.5,-351.3005"/>
          <text text-anchor="middle" x="1328.5" y="-336.6" font-family="Helvetica,sans-Serif" font-size="12.00" fill="#000000">Reports excluded:</text>
          <text text-anchor="middle" x="1328.5" y="-322.2" font-family="Helvetica,sans-Serif" font-size="12.00" fill="#000000">Not reporting rate outcomes (n = 16)</text>
        </a>
      </g>
    </g>
    <!-- 19 -->
    <g id="node22" class="node">
      <title>19</title>
      <g id="a_node22">
        <a xlink:title="Total studies included in review">
          <polygon fill="#dcdcdc" stroke="#dcdcdc" points="590.5,-72 338.5,-72 338.5,0 590.5,0 590.5,-72"/>
          <text text-anchor="middle" x="464.5" y="-39.6" font-family="Helvetica,sans-Serif" font-size="12.00" fill="#000000">Total studies included in</text>
          <text text-anchor="middle" x="464.5" y="-25.2" font-family="Helvetica,sans-Serif" font-size="12.00" fill="#000000">validation (n = 58)</text>
        </a>
      </g>
    </g>
    <!-- A -->
    <g id="node23" class="node">
      <title>A</title>
      <polygon fill="none" stroke="#ffffff" points="195,-36.5 194,-36.5 194,-35.5 195,-35.5 195,-36.5"/>
    </g>
    <!-- B -->
    <g id="node24" class="node">
      <title>B</title>
      <polygon fill="none" stroke="#ffffff" points="1041,-144.5 1040,-144.5 1040,-143.5 1041,-143.5 1041,-144.5"/>
    </g>
    <!-- C -->
  </g>
</svg>
